<?xml version="1.0" standalone="no"?><!DOCTYPE svg PUBLIC "-//W3C//DTD SVG 1.1//EN" "http://www.w3.org/Graphics/SVG/1.1/DTD/svg11.dtd"><svg t="1763390616386" class="icon" viewBox="0 0 1024 1024" version="1.1" xmlns="http://www.w3.org/2000/svg" p-id="42303" data-spm-anchor-id="a313x.search_index.0.i34.7d813a81kPNQM4" xmlns:xlink="http://www.w3.org/1999/xlink" width="200" height="200"><path d="M906.752 328.704v-28.672c39.936-28.672 74.24-68.608 102.912-108.544-34.304 17.408-74.24 28.672-114.176 34.304 39.936-23.04 74.24-68.608 91.648-114.176-39.936 23.04-79.872 39.936-125.952 51.712-34.304-39.936-91.648-68.608-148.48-68.608-114.176 0-200.192 91.648-200.192 211.456 0 17.408 0 34.304 5.632 51.712-165.888-11.264-314.368-97.28-417.792-228.864-28.672 23.04-39.936 57.344-39.936 97.28 0 74.24 34.304 142.848 91.648 183.296-34.304 0-62.976-11.264-91.648-28.672 0 102.912 68.608 194.56 160.256 211.456-17.408 5.632-34.304 5.632-51.712 5.632-11.264 0-23.04 0-39.936-5.632 23.04 86.016 102.912 148.48 188.928 148.48-68.608 57.344-154.624 91.648-251.904 91.648-17.408 0-34.304 0-45.568-5.632 91.648 62.976 194.56 97.28 308.736 97.28 371.712 11.264 577.536-314.88 577.536-595.456z" fill="#3298F0" p-id="42304"></path></svg>